P3
8 8
256
0 0 0      
51 0 0     
51 51 0    
51 51 51   
102 51 0   
102 51 51  
102 102 51 
102 102 102
153 102 51 
204 102 51 
153 102 102
153 153 102
204 153 102
255 153 102
153 153 153
204 153 153
204 204 153
255 204 153
204 204 204
255 204 204
255 255 204
255 255 255
255 204 102
153 51 51  
204 153 51 
255 255 153
204 204 102
204 255 255
204 255 204
153 204 153
102 153 102
153 204 102
102 153 51 
51 102 51  
204 204 51 
204 255 51 
102 204 0  
51 102 0   
102 153 0  
0 0 0      
0 0 0      
0 0 0      
0 0 0      
0 0 0      
0 0 0      
0 0 0      
0 0 0      
0 0 0      
0 0 0      
0 0 0      
0 0 0      
0 0 0      
0 0 0      
0 0 0      
0 0 0      
0 0 0      
0 0 0      
0 0 0      
0 0 0      
0 0 0      
0 0 0      
0 0 0      
0 0 0      
0 0 0      