P3
4 4
256
0 0 0      
87 87 87   
171 87 0   
255 87 87  
255 255 87 
0 171 171  
87 255 255 
171 171 171
255 255 255
0 0 0      
0 0 0      
0 0 0      
0 0 0      
0 0 0      
0 0 0      
0 0 0      