P3
16 16
256
14 2 10    
21 7 15    
43 16 15   
62 34 24   
92 12 4    
88 11 10   
92 19 4    
88 22 9    
85 15 17   
74 22 22   
88 23 23   
79 12 12   
100 11 5   
106 11 6   
101 11 10  
106 10 9   
100 18 5   
105 18 6   
101 18 10  
107 18 10  
102 27 8   
103 22 21  
115 25 23  
112 21 14  
87 61 29   
82 41 28   
103 37 8   
121 56 8   
106 38 22  
118 38 22  
108 57 22  
118 56 25  
115 47 9   
122 29 37  
89 56 56   
78 55 39   
121 36 41  
121 55 38  
106 49 42  
80 30 33   
103 64 26  
122 69 18  
84 77 56   
113 79 46  
127 104 45 
101 63 68  
50 84 85   
43 94 99   
29 104 114 
43 109 119 
30 94 101  
89 69 65   
75 79 81   
102 71 73  
111 84 78  
117 102 84 
119 106 104
114 113 118
98 100 113 
132 40 22  
148 42 23  
142 54 23  
164 52 28  
136 53 40  
149 55 60  
138 47 49  
169 60 55  
133 70 6   
137 70 22  
138 83 24  
148 90 25  
141 85 10  
152 102 18 
166 106 9  
171 120 11 
179 126 11 
180 123 24 
169 114 24 
133 72 34  
154 90 55  
142 83 47  
168 91 61  
150 108 47 
167 116 35 
173 110 48 
180 65 19  
202 77 13  
206 77 15  
233 78 14  
149 57 69  
142 59 68  
168 63 72  
148 68 73  
156 72 86  
137 70 69  
168 72 89  
166 89 89  
167 79 73  
138 114 81 
164 119 69 
169 111 76 
143 87 105 
167 77 99  
182 78 102 
170 84 107 
184 82 107 
174 88 114 
182 89 116 
142 114 110
184 100 122
171 109 110
196 86 117 
199 88 121 
205 89 124 
199 87 119 
210 90 126 
185 136 9  
184 136 25 
187 142 18 
170 132 39 
184 138 38 
188 149 41 
188 152 56 
177 138 56 
204 157 5  
198 151 9  
200 152 22 
198 147 17 
206 161 11 
210 164 5  
219 172 3  
219 173 12 
213 167 10 
223 177 6  
218 173 19 
213 168 22 
222 178 18 
205 161 21 
227 180 3  
233 182 2  
230 185 3  
237 187 2  
227 181 11 
232 186 10 
242 189 0  
226 180 18 
231 187 17 
225 175 5  
198 153 38 
193 145 46 
204 165 42 
203 166 52 
214 173 39 
237 194 1  
245 194 1  
249 199 1  
251 200 0  
242 193 8  
154 131 81 
183 151 70 
185 153 90 
176 140 75 
148 133 122
174 151 103
188 164 112
195 155 88 
197 156 76 
200 164 89 
204 165 78 
203 167 101
214 171 100
217 174 102
217 174 105
212 171 103
217 177 104
198 172 118
201 178 123
204 176 108
29 120 131 
50 108 185 
41 97 156  
84 115 151 
123 108 136
112 125 139
79 120 169 
38 102 200 
189 103 132
167 112 143
131 127 133
195 108 139
202 114 149
205 116 153
198 112 144
210 117 156
198 111 144
24 131 145 
51 140 169 
36 136 157 
83 139 178 
105 146 179
103 130 149
99 162 208 
146 138 140
168 153 145
184 167 137
184 172 155
162 157 160
170 167 169
177 171 170
189 181 170
188 187 189
183 180 182
174 174 176
158 159 162
202 181 142
194 189 186
197 185 162
213 194 153
217 203 179
206 197 181
188 191 194
198 190 195
189 192 194
202 202 204
198 196 198
206 206 209
211 211 212
218 219 220
215 215 216
214 209 201
226 221 215
225 218 204
227 226 222
220 221 225
223 224 228
223 226 233
225 226 228
226 228 235
231 231 233
235 238 243
238 243 249
237 241 247
240 245 252
0 0 0      
0 0 0      
0 0 0      
0 0 0      
0 0 0      
0 0 0      
0 0 0      
0 0 0      
0 0 0      
0 0 0      
0 0 0      
0 0 0      
0 0 0      