P3
8 4
256
41 25 27   
49 41 43   
32 26 28   
81 51 51   
94 68 61   
97 91 90   
62 67 71   
142 86 83  
152 109 104
169 113 109
153 97 93  
195 125 113
109 135 122
170 132 121
202 137 121
102 117 135
157 126 131
120 142 145
181 142 137
147 168 168
173 174 177
149 157 157
207 168 163
217 195 187
177 182 198
208 189 197
185 196 208
208 205 211
239 237 240
227 218 222
179 194 187
0 0 0      